<?xml version="1.0" standalone="no"?>
<!DOCTYPE svg PUBLIC "-//W3C//DTD SVG 20010904//EN"
 "http://www.w3.org/TR/2001/REC-SVG-20010904/DTD/svg10.dtd">
<svg version="1.0" xmlns="http://www.w3.org/2000/svg"
 width="16.000000pt" height="16.000000pt" viewBox="0 0 16.000000 16.000000"
 preserveAspectRatio="xMidYMid meet">

<g transform="translate(0.000000,16.000000) scale(0.100000,-0.100000)"
fill="#000000" stroke="none">
<path d="M0 80 l0 -80 80 0 80 0 0 80 0 80 -80 0 -80 0 0 -80z m109 42 c0 -14
-2 -13 -9 3 -8 19 -9 19 -9 1 -1 -11 -4 -17 -7 -13 -4 3 -4 13 0 22 7 20 26
10 25 -13z m-49 -2 c0 -5 -9 -10 -20 -10 -11 0 -20 5 -20 10 0 6 9 10 20 10
11 0 20 -4 20 -10z m80 -4 c0 -8 -9 -18 -20 -21 -25 -8 -26 -35 -1 -35 12 0
20 -9 23 -25 4 -17 1 -25 -8 -25 -8 0 -14 9 -14 20 0 11 -4 20 -10 20 -5 0
-10 -7 -10 -15 0 -22 -27 -18 -33 5 -6 22 8 28 16 8 3 -7 6 1 6 17 1 23 -2 26
-9 15 -8 -13 -10 -12 -10 3 0 16 10 21 38 18 6 -1 12 5 12 14 0 8 5 15 10 15
6 0 10 -6 10 -14z m-97 -23 c-7 -2 -19 -2 -25 0 -7 3 -2 5 12 5 14 0 19 -2 13
-5z m0 -20 c-7 -2 -19 -2 -25 0 -7 3 -2 5 12 5 14 0 19 -2 13 -5z m0 -20 c-7
-2 -19 -2 -25 0 -7 3 -2 5 12 5 14 0 19 -2 13 -5z m17 -23 c0 -5 -9 -10 -20
-10 -11 0 -20 5 -20 10 0 6 9 10 20 10 11 0 20 -4 20 -10z"/>
</g>
</svg>
